<?xml version="1.0" encoding="UTF-8"?>
<svg width="20px" height="20px" viewBox="0 0 20 20" version="1.1" xmlns="http://www.w3.org/2000/svg" xmlns:xlink="http://www.w3.org/1999/xlink">
    <!-- Generator: sketchtool 64 (101010) - https://sketch.com -->
    <title>A04B23ED-087A-4DF8-93F3-B3EA832489BF</title>
    <desc>Created with sketchtool.</desc>
    <g id="Page-1" stroke="none" stroke-width="1" fill="none" fill-rule="evenodd">
        <g id="Main-page-new-tablet" transform="translate(-609.000000, -36.000000)" fill="#222F08" fill-rule="nonzero">
            <g id="header">
                <path d="M622,45 L620,45 L620,41 C620,40.4477153 619.552285,40 619,40 C618.447715,40 618,40.4477153 618,41 L618,46 C618,46.5522847 618.447715,47 619,47 L622,47 C622.552285,47 623,46.5522847 623,46 C623,45.4477153 622.552285,45 622,45 Z M619,36 C613.477153,36 609,40.4771525 609,46 C609,51.5228475 613.477153,56 619,56 C624.522847,56 629,51.5228475 629,46 C629,43.3478351 627.946432,40.804296 626.071068,38.9289322 C624.195704,37.0535684 621.652165,36 619,36 Z M619,54 C614.581722,54 611,50.418278 611,46 C611,41.581722 614.581722,38 619,38 C623.418278,38 627,41.581722 627,46 C627,48.1217319 626.157145,50.1565632 624.656854,51.6568542 C623.156563,53.1571453 621.121732,54 619,54 Z" id="icn_time"></path>
            </g>
        </g>
    </g>
</svg>